<svg id="visual" viewBox="0 0 900 600" width="900" height="600" xmlns="http://www.w3.org/2000/svg" xmlns:xlink="http://www.w3.org/1999/xlink" version="1.1"><rect x="0" y="0" width="900" height="600" fill="#000"></rect><path d="M0 505L11.5 501.8C23 498.7 46 492.3 69 492.2C92 492 115 498 138.2 497.2C161.3 496.3 184.7 488.7 207.8 488.7C231 488.7 254 496.3 277 501.5C300 506.7 323 509.3 346 505.7C369 502 392 492 415.2 488.3C438.3 484.7 461.7 487.3 484.8 486.2C508 485 531 480 554 477.2C577 474.3 600 473.7 623 476.2C646 478.7 669 484.3 692.2 488.3C715.3 492.3 738.7 494.7 761.8 491.8C785 489 808 481 831 476.7C854 472.3 877 471.7 888.5 471.3L900 471L900 601L888.5 601C877 601 854 601 831 601C808 601 785 601 761.8 601C738.7 601 715.3 601 692.2 601C669 601 646 601 623 601C600 601 577 601 554 601C531 601 508 601 484.8 601C461.7 601 438.3 601 415.2 601C392 601 369 601 346 601C323 601 300 601 277 601C254 601 231 601 207.8 601C184.7 601 161.3 601 138.2 601C115 601 92 601 69 601C46 601 23 601 11.5 601L0 601Z" fill="#9d4cbd"></path><path d="M0 514L11.5 512.5C23 511 46 508 69 505.3C92 502.7 115 500.3 138.2 499.5C161.3 498.7 184.7 499.3 207.8 503.7C231 508 254 516 277 520.5C300 525 323 526 346 526.7C369 527.3 392 527.7 415.2 523.2C438.3 518.7 461.7 509.3 484.8 507.2C508 505 531 510 554 509C577 508 600 501 623 501.8C646 502.7 669 511.3 692.2 513.2C715.3 515 738.7 510 761.8 509.8C785 509.7 808 514.3 831 512.3C854 510.3 877 501.7 888.5 497.3L900 493L900 601L888.5 601C877 601 854 601 831 601C808 601 785 601 761.8 601C738.7 601 715.3 601 692.2 601C669 601 646 601 623 601C600 601 577 601 554 601C531 601 508 601 484.8 601C461.7 601 438.3 601 415.2 601C392 601 369 601 346 601C323 601 300 601 277 601C254 601 231 601 207.8 601C184.7 601 161.3 601 138.2 601C115 601 92 601 69 601C46 601 23 601 11.5 601L0 601Z" fill="#8c42ba"></path><path d="M0 541L11.5 541.3C23 541.7 46 542.3 69 541.8C92 541.3 115 539.7 138.2 536.7C161.3 533.7 184.7 529.3 207.8 529.5C231 529.7 254 534.3 277 533C300 531.7 323 524.3 346 525C369 525.7 392 534.3 415.2 537C438.3 539.7 461.7 536.3 484.8 536.2C508 536 531 539 554 537.3C577 535.7 600 529.3 623 527.7C646 526 669 529 692.2 531.3C715.3 533.7 738.7 535.3 761.8 533.8C785 532.3 808 527.7 831 527.8C854 528 877 533 888.5 535.5L900 538L900 601L888.5 601C877 601 854 601 831 601C808 601 785 601 761.8 601C738.7 601 715.3 601 692.2 601C669 601 646 601 623 601C600 601 577 601 554 601C531 601 508 601 484.8 601C461.7 601 438.3 601 415.2 601C392 601 369 601 346 601C323 601 300 601 277 601C254 601 231 601 207.8 601C184.7 601 161.3 601 138.2 601C115 601 92 601 69 601C46 601 23 601 11.5 601L0 601Z" fill="#7a38b7"></path><path d="M0 552L11.5 552.3C23 552.7 46 553.3 69 554.3C92 555.3 115 556.7 138.2 554C161.3 551.3 184.7 544.7 207.8 545.2C231 545.7 254 553.3 277 555.5C300 557.7 323 554.3 346 553.3C369 552.3 392 553.7 415.2 553C438.3 552.3 461.7 549.7 484.8 548.2C508 546.7 531 546.3 554 545.7C577 545 600 544 623 544C646 544 669 545 692.2 545.5C715.3 546 738.7 546 761.8 548.3C785 550.7 808 555.3 831 555.3C854 555.3 877 550.7 888.5 548.3L900 546L900 601L888.5 601C877 601 854 601 831 601C808 601 785 601 761.8 601C738.7 601 715.3 601 692.2 601C669 601 646 601 623 601C600 601 577 601 554 601C531 601 508 601 484.8 601C461.7 601 438.3 601 415.2 601C392 601 369 601 346 601C323 601 300 601 277 601C254 601 231 601 207.8 601C184.7 601 161.3 601 138.2 601C115 601 92 601 69 601C46 601 23 601 11.5 601L0 601Z" fill="#652fb4"></path><path d="M0 570L11.5 568.5C23 567 46 564 69 565C92 566 115 571 138.2 571C161.3 571 184.7 566 207.8 563.7C231 561.3 254 561.7 277 562C300 562.3 323 562.7 346 564.5C369 566.3 392 569.7 415.2 571.8C438.3 574 461.7 575 484.8 573C508 571 531 566 554 566.3C577 566.7 600 572.3 623 574.2C646 576 669 574 692.2 572.3C715.3 570.7 738.7 569.3 761.8 569C785 568.7 808 569.3 831 568.2C854 567 877 564 888.5 562.5L900 561L900 601L888.5 601C877 601 854 601 831 601C808 601 785 601 761.8 601C738.7 601 715.3 601 692.2 601C669 601 646 601 623 601C600 601 577 601 554 601C531 601 508 601 484.8 601C461.7 601 438.3 601 415.2 601C392 601 369 601 346 601C323 601 300 601 277 601C254 601 231 601 207.8 601C184.7 601 161.3 601 138.2 601C115 601 92 601 69 601C46 601 23 601 11.5 601L0 601Z" fill="#4d28b1"></path></svg>