<svg id="visual" viewBox="0 0 900 600" width="900" height="600" xmlns="http://www.w3.org/2000/svg" xmlns:xlink="http://www.w3.org/1999/xlink" version="1.1"><rect x="0" y="0" width="900" height="600" fill="#4d28b1"></rect><path d="M0 558L18.8 553.2C37.7 548.3 75.3 538.7 112.8 541.2C150.3 543.7 187.7 558.3 225.2 556.7C262.7 555 300.3 537 337.8 535.7C375.3 534.3 412.7 549.7 450.2 551.8C487.7 554 525.3 543 562.8 542.2C600.3 541.3 637.7 550.7 675.2 550.3C712.7 550 750.3 540 787.8 537.2C825.3 534.3 862.7 538.7 881.3 540.8L900 543L900 601L881.3 601C862.7 601 825.3 601 787.8 601C750.3 601 712.7 601 675.2 601C637.7 601 600.3 601 562.8 601C525.3 601 487.7 601 450.2 601C412.7 601 375.3 601 337.8 601C300.3 601 262.7 601 225.2 601C187.7 601 150.3 601 112.8 601C75.3 601 37.7 601 18.8 601L0 601Z" fill="#bbb2d5" stroke-linecap="round" stroke-linejoin="miter"></path></svg>